<?xml version="1.0" encoding="UTF-8" standalone="no"?>
<!-- Created with Inkscape (http://www.inkscape.org/) -->

<svg
   width="128"
   height="128"
   viewBox="0 0 33.866666 33.866666"
   version="1.1"
   id="svg1"
   inkscape:version="1.4.2 (ebf0e940d0, 2025-05-08)"
   sodipodi:docname="genetics.svg"
   inkscape:export-filename="genetics.png"
   inkscape:export-xdpi="96"
   inkscape:export-ydpi="96"
   xmlns:inkscape="http://www.inkscape.org/namespaces/inkscape"
   xmlns:sodipodi="http://sodipodi.sourceforge.net/DTD/sodipodi-0.dtd"
   xmlns="http://www.w3.org/2000/svg"
   xmlns:svg="http://www.w3.org/2000/svg">
  <sodipodi:namedview
     id="namedview1"
     pagecolor="#505050"
     bordercolor="#ffffff"
     borderopacity="1"
     inkscape:showpageshadow="0"
     inkscape:pageopacity="0"
     inkscape:pagecheckerboard="1"
     inkscape:deskcolor="#505050"
     inkscape:document-units="px"
     showgrid="true"
     inkscape:zoom="3.296875"
     inkscape:cx="49.137441"
     inkscape:cy="66.274882"
     inkscape:window-width="1068"
     inkscape:window-height="1112"
     inkscape:window-x="0"
     inkscape:window-y="0"
     inkscape:window-maximized="1"
     inkscape:current-layer="layer1">
    <inkscape:grid
       id="grid1"
       units="px"
       originx="0"
       originy="0"
       spacingx="1.0583333"
       spacingy="1.0583333"
       empcolor="#0099e5"
       empopacity="0.30196078"
       color="#0099e5"
       opacity="0.14901961"
       empspacing="4"
       enabled="true"
       visible="true" />
  </sodipodi:namedview>
  <defs
     id="defs1">
    <inkscape:path-effect
       effect="powerclip"
       message=""
       id="path-effect8"
       is_visible="true"
       lpeversion="1"
       inverse="true"
       flatten="false"
       hide_clip="false" />
    <inkscape:path-effect
       effect="powerclip"
       message=""
       id="path-effect7"
       is_visible="true"
       lpeversion="1"
       inverse="true"
       flatten="false"
       hide_clip="false" />
    <clipPath
       clipPathUnits="userSpaceOnUse"
       id="clipPath6">
      <path
         id="path7"
         style="baseline-shift:baseline;display:none;overflow:visible;opacity:1;vector-effect:none;stroke-width:1;enable-background:accumulate;stop-color:#000000;stop-opacity:1"
         d="m 23.406323,-1.3730428 -0.748275,0.74827475 C 20.686834,1.3464461 19.770525,3.6793934 19.542993,5.8926636 c -0.225287,2.1914226 0.136924,4.2368534 0.472839,6.0507934 0.335589,1.812183 0.642162,3.447967 0.605131,4.669999 -0.03828,1.263392 -0.243136,1.973779 -1.138432,2.869075 -0.167059,0.167059 -0.327811,0.310136 -0.486792,0.432532 l 1.622124,1.397331 c 0.122241,-0.104375 0.24255,-0.215679 0.360701,-0.33383 1.251633,-1.251634 1.712246,-2.740339 1.759583,-4.30258 C 22.786737,15.072387 22.430561,13.352897 22.097876,11.5564 21.765517,9.7616614 21.460884,7.9306048 21.648291,6.1076373 21.801552,4.6168291 22.448537,3.1411558 23.537064,1.749764 l 0.373104,0.3731038 c -0.998478,1.2931562 -1.593503,2.6497344 -1.736328,4.03903 -0.177799,1.7295071 0.11235,3.5113142 0.443384,5.2989012 0.331298,1.789001 0.699781,3.541879 0.648539,5.232755 -0.05027,1.658895 -0.553722,3.301875 -1.912028,4.660181 -0.10813,0.10813 -0.218094,0.210493 -0.329696,0.307991 l 1.614889,1.391647 c 0.07085,-0.0662 0.141332,-0.134097 0.21084,-0.203605 1.786432,-1.78643 2.470636,-4.029771 2.533178,-6.093685 0.06158,-2.031929 -0.360333,-3.935756 -0.683679,-5.681824 C 24.375659,9.326775 24.142029,7.7105781 24.279138,6.3768715 24.419183,5.0146134 24.799432,3.9678027 26.025284,2.7419514 L 26.77356,1.9941935 Z" />
      <path
         id="lpe_path-effect7"
         style="baseline-shift:baseline;display:inline;overflow:visible;opacity:1;vector-effect:none;stroke-width:1;enable-background:accumulate;stop-color:#000000;stop-opacity:1"
         class="powerclip"
         d="M 3.5898438,3.5898438 H 38.744141 V 38.744141 H 3.5898438 Z M 23.406323,-1.3730428 22.658048,-0.62476805 C 20.686834,1.3464461 19.770525,3.6793934 19.542993,5.8926636 c -0.225287,2.1914226 0.136924,4.2368534 0.472839,6.0507934 0.335589,1.812183 0.642162,3.447967 0.605131,4.669999 -0.03828,1.263392 -0.243136,1.973779 -1.138432,2.869075 -0.167059,0.167059 -0.327811,0.310136 -0.486792,0.432532 l 1.622124,1.397331 c 0.122241,-0.104375 0.24255,-0.215679 0.360701,-0.33383 1.251633,-1.251634 1.712246,-2.740339 1.759583,-4.30258 C 22.786737,15.072387 22.430561,13.352897 22.097876,11.5564 21.765517,9.7616614 21.460884,7.9306048 21.648291,6.1076373 21.801552,4.6168291 22.448537,3.1411558 23.537064,1.749764 l 0.373104,0.3731038 c -0.998478,1.2931562 -1.593503,2.6497344 -1.736328,4.03903 -0.177799,1.7295071 0.11235,3.5113142 0.443384,5.2989012 0.331298,1.789001 0.699781,3.541879 0.648539,5.232755 -0.05027,1.658895 -0.553722,3.301875 -1.912028,4.660181 -0.10813,0.10813 -0.218094,0.210493 -0.329696,0.307991 l 1.614889,1.391647 c 0.07085,-0.0662 0.141332,-0.134097 0.21084,-0.203605 1.786432,-1.78643 2.470636,-4.029771 2.533178,-6.093685 0.06158,-2.031929 -0.360333,-3.935756 -0.683679,-5.681824 C 24.375659,9.326775 24.142029,7.7105781 24.279138,6.3768715 24.419183,5.0146134 24.799432,3.9678027 26.025284,2.7419514 L 26.77356,1.9941935 Z" />
    </clipPath>
    <clipPath
       clipPathUnits="userSpaceOnUse"
       id="clipPath8">
      <path
         id="path8"
         style="baseline-shift:baseline;display:none;overflow:visible;opacity:1;vector-effect:none;stroke-width:1;enable-background:accumulate;stop-color:#000000;stop-opacity:1"
         d="m 15.128275,13.768668 -1.374076,-1.603003 c -0.29961,0.203947 -0.589626,0.442865 -0.867647,0.720887 -1.252089,1.252087 -1.710208,2.74183 -1.757516,4.303096 -0.0486,1.603628 0.307562,3.324503 0.640271,5.121134 0.332359,1.794738 0.636993,3.625796 0.449585,5.448764 -0.153261,1.490808 -0.800246,2.966481 -1.888773,4.357872 L 9.9570149,31.744316 c 0.9988401,-1.2939 1.5934941,-2.651707 1.7363281,-4.041097 0.1778,-1.729509 -0.112349,-3.511315 -0.443384,-5.298902 -0.331296,-1.789001 -0.699778,-3.54136 -0.648539,-5.232239 0.05029,-1.659633 0.552482,-3.302185 1.910478,-4.66018 0.286855,-0.286856 0.586342,-0.535558 0.896069,-0.749825 l -1.380794,-1.611272 c -0.349609,0.253913 -0.687873,0.541628 -1.011308,0.865064 -1.7867405,1.78674 -2.4691083,4.030512 -2.5316286,6.093685 -0.061573,2.031927 0.3603331,3.935236 0.6836794,5.681306 0.3236087,1.747484 0.5572394,3.363682 0.4201292,4.697389 -0.1400545,1.36235 -0.5206481,2.411486 -1.7461465,3.636986 l -0.7482747,0.747757 3.3672362,3.367239 0.748275,-0.748277 c 1.971215,-1.971214 2.887523,-4.304162 3.115055,-6.51743 0.225286,-2.191422 -0.136924,-4.236852 -0.472839,-6.050794 -0.335565,-1.812047 -0.642162,-3.449545 -0.605131,-4.671549 0.03831,-1.264365 0.24152,-1.974751 1.136364,-2.869593 0.25787,-0.25787 0.50084,-0.45827 0.745691,-0.613916 z" />
      <path
         id="lpe_path-effect8"
         style="baseline-shift:baseline;display:inline;overflow:visible;opacity:1;vector-effect:none;stroke-width:1;enable-background:accumulate;stop-color:#000000;stop-opacity:1"
         class="powerclip"
         d="M -4.8769531,-4.8769531 H 30.277344 V 30.277344 H -4.8769531 Z M 15.128275,13.768668 13.754199,12.165665 c -0.29961,0.203947 -0.589626,0.442865 -0.867647,0.720887 -1.252089,1.252087 -1.710208,2.74183 -1.757516,4.303096 -0.0486,1.603628 0.307562,3.324503 0.640271,5.121134 0.332359,1.794738 0.636993,3.625796 0.449585,5.448764 -0.153261,1.490808 -0.800246,2.966481 -1.888773,4.357872 L 9.9570149,31.744316 c 0.9988401,-1.2939 1.5934941,-2.651707 1.7363281,-4.041097 0.1778,-1.729509 -0.112349,-3.511315 -0.443384,-5.298902 -0.331296,-1.789001 -0.699778,-3.54136 -0.648539,-5.232239 0.05029,-1.659633 0.552482,-3.302185 1.910478,-4.66018 0.286855,-0.286856 0.586342,-0.535558 0.896069,-0.749825 l -1.380794,-1.611272 c -0.349609,0.253913 -0.687873,0.541628 -1.011308,0.865064 -1.7867405,1.78674 -2.4691083,4.030512 -2.5316286,6.093685 -0.061573,2.031927 0.3603331,3.935236 0.6836794,5.681306 0.3236087,1.747484 0.5572394,3.363682 0.4201292,4.697389 -0.1400545,1.36235 -0.5206481,2.411486 -1.7461465,3.636986 l -0.7482747,0.747757 3.3672362,3.367239 0.748275,-0.748277 c 1.971215,-1.971214 2.887523,-4.304162 3.115055,-6.51743 0.225286,-2.191422 -0.136924,-4.236852 -0.472839,-6.050794 -0.335565,-1.812047 -0.642162,-3.449545 -0.605131,-4.671549 0.03831,-1.264365 0.24152,-1.974751 1.136364,-2.869593 0.25787,-0.25787 0.50084,-0.45827 0.745691,-0.613916 z" />
    </clipPath>
  </defs>
  <g
     inkscape:label="Layer 1"
     inkscape:groupmode="layer"
     id="layer1">
    <path
       style="baseline-shift:baseline;display:inline;overflow:visible;opacity:1;vector-effect:none;fill:#ffffff;enable-background:accumulate;stop-color:#000000;stop-opacity:1"
       d="M 23.40625,0.12304687 C 21.610874,1.9184231 20.80205,3.992805 20.595703,6 c -0.206347,2.007195 0.126801,3.9456604 0.460938,5.75 0.334137,1.80434 0.665859,3.481716 0.623046,4.894531 -0.04281,1.412816 -0.375753,2.512473 -1.449218,3.585938 -1.073465,1.073465 -2.173122,1.406406 -3.585938,1.449218 C 15.231716,21.7225 13.55434,21.390778 11.75,21.056641 9.9456604,20.722504 8.007195,20.389356 6,20.595703 3.992805,20.80205 1.9184231,21.610874 0.12304687,23.40625 l 1.87109373,1.871094 c 1.3796236,-1.379624 2.7437838,-1.893327 4.2753906,-2.050782 1.5316069,-0.157454 3.2305116,0.10432 4.9980468,0.431641 1.767535,0.327322 3.595628,0.722422 5.457031,0.666016 1.861404,-0.05641 3.804585,-0.650288 5.376953,-2.222657 1.572369,-1.572368 2.166251,-3.515549 2.222657,-5.376953 0.05641,-1.861403 -0.338694,-3.689496 -0.666016,-5.457031 C 23.330882,9.5000428 23.069108,7.8011381 23.226562,6.2695312 23.384017,4.7379244 23.89772,3.3737642 25.277344,1.9941406 Z"
       id="path2"
       clip-path="url(#clipPath8)"
       inkscape:path-effect="#path-effect8"
       inkscape:original-d="M 23.40625,0.12304687 C 21.610874,1.9184231 20.80205,3.992805 20.595703,6 c -0.206347,2.007195 0.126801,3.9456604 0.460938,5.75 0.334137,1.80434 0.665859,3.481716 0.623046,4.894531 -0.04281,1.412816 -0.375753,2.512473 -1.449218,3.585938 -1.073465,1.073465 -2.173122,1.406406 -3.585938,1.449218 C 15.231716,21.7225 13.55434,21.390778 11.75,21.056641 9.9456604,20.722504 8.007195,20.389356 6,20.595703 3.992805,20.80205 1.9184231,21.610874 0.12304687,23.40625 l 1.87109373,1.871094 c 1.3796236,-1.379624 2.7437838,-1.893327 4.2753906,-2.050782 1.5316069,-0.157454 3.2305116,0.10432 4.9980468,0.431641 1.767535,0.327322 3.595628,0.722422 5.457031,0.666016 1.861404,-0.05641 3.804585,-0.650288 5.376953,-2.222657 1.572369,-1.572368 2.166251,-3.515549 2.222657,-5.376953 0.05641,-1.861403 -0.338694,-3.689496 -0.666016,-5.457031 C 23.330882,9.5000428 23.069108,7.8011381 23.226562,6.2695312 23.384017,4.7379244 23.89772,3.3737642 25.277344,1.9941406 Z" />
    <path
       style="baseline-shift:baseline;display:inline;overflow:visible;opacity:1;vector-effect:none;fill:#ffffff;enable-background:accumulate;stop-color:#000000;stop-opacity:1"
       d="M 31.873047,8.5898438 C 30.493423,9.9694676 29.12731,10.48317 27.595703,10.640625 26.064096,10.79808 24.365192,10.536306 22.597656,10.208984 20.830121,9.8816629 19.002028,9.4865628 17.140625,9.5429688 c -1.861403,0.056406 -3.804585,0.6483352 -5.376953,2.2207032 -1.572368,1.572368 -2.1642972,3.51555 -2.2207032,5.376953 -0.056406,1.861403 0.3386941,3.689496 0.6660152,5.457031 0.327322,1.767536 0.589096,3.46644 0.431641,4.998047 -0.157455,1.531607 -0.6711572,2.89772 -2.0507812,4.277344 l 1.8710942,1.871094 c 1.795376,-1.795376 2.604199,-3.869759 2.810546,-5.876954 0.206347,-2.007194 -0.1268,-3.94566 -0.460937,-5.75 -0.334137,-1.804339 -0.66586,-3.483668 -0.623047,-4.896484 0.04281,-1.412816 0.3738,-2.512472 1.447266,-3.585937 1.073465,-1.073466 2.173121,-1.404454 3.585937,-1.447266 1.412816,-0.04281 3.092145,0.28891 4.896484,0.623047 1.80434,0.334137 3.742806,0.667284 5.75,0.460937 2.007195,-0.206347 4.081578,-1.015171 5.876954,-2.810546 z"
       id="path4"
       clip-path="url(#clipPath6)"
       inkscape:path-effect="#path-effect7"
       inkscape:original-d="M 31.873047,8.5898438 C 30.493423,9.9694676 29.12731,10.48317 27.595703,10.640625 26.064096,10.79808 24.365192,10.536306 22.597656,10.208984 20.830121,9.8816629 19.002028,9.4865628 17.140625,9.5429688 c -1.861403,0.056406 -3.804585,0.6483352 -5.376953,2.2207032 -1.572368,1.572368 -2.1642972,3.51555 -2.2207032,5.376953 -0.056406,1.861403 0.3386941,3.689496 0.6660152,5.457031 0.327322,1.767536 0.589096,3.46644 0.431641,4.998047 -0.157455,1.531607 -0.6711572,2.89772 -2.0507812,4.277344 l 1.8710942,1.871094 c 1.795376,-1.795376 2.604199,-3.869759 2.810546,-5.876954 0.206347,-2.007194 -0.1268,-3.94566 -0.460937,-5.75 -0.334137,-1.804339 -0.66586,-3.483668 -0.623047,-4.896484 0.04281,-1.412816 0.3738,-2.512472 1.447266,-3.585937 1.073465,-1.073466 2.173121,-1.404454 3.585937,-1.447266 1.412816,-0.04281 3.092145,0.28891 4.896484,0.623047 1.80434,0.334137 3.742806,0.667284 5.75,0.460937 2.007195,-0.206347 4.081578,-1.015171 5.876954,-2.810546 z" />
    <path
       style="fill:none;stroke:#ffffff;stroke-width:1.05833;stroke-dasharray:none;stroke-opacity:1"
       d="m 14.287499,11.1125 8.466666,8.466666"
       id="path12" />
    <path
       style="fill:none;stroke:#ffffff;stroke-width:1.05833;stroke-dasharray:none;stroke-opacity:1"
       d="m 11.1125,14.287499 8.466666,8.466666"
       id="path13" />
    <path
       style="fill:none;stroke:#ffffff;stroke-width:1.05833;stroke-dasharray:none;stroke-opacity:1"
       d="m 21.695831,3.7041667 8.466668,8.4666673"
       id="path14" />
    <path
       style="fill:none;stroke:#ffffff;stroke-width:1.05833;stroke-dasharray:none;stroke-opacity:1"
       d="m 3.7041667,21.695831 8.4666673,8.466668"
       id="path15" />
  </g>
</svg>
