<?xml version="1.0" encoding="UTF-8" standalone="no"?>
<!-- Created with Inkscape (http://www.inkscape.org/) -->

<svg
   width="128"
   height="128"
   viewBox="0 0 33.866666 33.866666"
   version="1.1"
   id="svg1"
   inkscape:version="1.4.2 (ebf0e940d0, 2025-05-08)"
   sodipodi:docname="childcare.svg"
   inkscape:export-filename="childcare.png"
   inkscape:export-xdpi="96"
   inkscape:export-ydpi="96"
   xmlns:inkscape="http://www.inkscape.org/namespaces/inkscape"
   xmlns:sodipodi="http://sodipodi.sourceforge.net/DTD/sodipodi-0.dtd"
   xmlns="http://www.w3.org/2000/svg"
   xmlns:svg="http://www.w3.org/2000/svg">
  <sodipodi:namedview
     id="namedview1"
     pagecolor="#505050"
     bordercolor="#ffffff"
     borderopacity="1"
     inkscape:showpageshadow="0"
     inkscape:pageopacity="0"
     inkscape:pagecheckerboard="1"
     inkscape:deskcolor="#505050"
     inkscape:document-units="px"
     showgrid="true"
     inkscape:zoom="2.3312427"
     inkscape:cx="78.498906"
     inkscape:cy="73.136959"
     inkscape:window-width="1068"
     inkscape:window-height="1112"
     inkscape:window-x="0"
     inkscape:window-y="0"
     inkscape:window-maximized="1"
     inkscape:current-layer="layer1">
    <inkscape:grid
       id="grid1"
       units="px"
       originx="0"
       originy="0"
       spacingx="1.0583333"
       spacingy="1.0583333"
       empcolor="#0099e5"
       empopacity="0.30196078"
       color="#0099e5"
       opacity="0.14901961"
       empspacing="4"
       enabled="true"
       visible="true" />
  </sodipodi:namedview>
  <defs
     id="defs1">
    <inkscape:path-effect
       effect="powerclip"
       message=""
       id="path-effect13"
       is_visible="true"
       lpeversion="1"
       inverse="true"
       flatten="false"
       hide_clip="false" />
    <inkscape:path-effect
       effect="powerclip"
       message=""
       id="path-effect9"
       is_visible="true"
       lpeversion="1"
       inverse="true"
       flatten="false"
       hide_clip="false" />
    <inkscape:path-effect
       effect="powerclip"
       message=""
       id="path-effect6"
       is_visible="true"
       lpeversion="1"
       inverse="true"
       flatten="false"
       hide_clip="false" />
    <clipPath
       clipPathUnits="userSpaceOnUse"
       id="clipPath8">
      <path
         style="baseline-shift:baseline;display:none;overflow:visible;opacity:1;vector-effect:none;stroke-width:1;enable-background:accumulate;stop-color:#000000;stop-opacity:1"
         d="m 3.7041647,24.870832 c 0,1.984376 3.3072919,5.291667 5.2916674,5.291667 1.9843759,0 5.5562499,-5.55625 6.8791669,-6.879167 1.322918,-1.322917 6.879169,-4.894791 6.879169,-6.879166 0,-1.984375 -3.307293,-5.291668 -5.291669,-5.291668 -1.984374,0 -5.556249,5.55625 -6.879167,6.879168 -1.3229171,1.322917 -6.8791673,4.894791 -6.8791673,6.879166 z"
         id="path9" />
      <path
         id="lpe_path-effect9"
         style="baseline-shift:baseline;display:block;overflow:visible;opacity:1;vector-effect:none;stroke-width:1;enable-background:accumulate;stop-color:#000000;stop-opacity:1"
         class="powerclip"
         d="M -4.4708333,2.9374995 H 30.929166 V 38.337498 H -4.4708333 Z m 8.174998,21.9333325 c 0,1.984376 3.3072919,5.291667 5.2916674,5.291667 1.9843759,0 5.5562499,-5.55625 6.8791669,-6.879167 1.322918,-1.322917 6.879169,-4.894791 6.879169,-6.879166 0,-1.984375 -3.307293,-5.291668 -5.291669,-5.291668 -1.984374,0 -5.556249,5.55625 -6.879167,6.879168 -1.3229171,1.322917 -6.8791673,4.894791 -6.8791673,6.879166 z" />
    </clipPath>
    <clipPath
       clipPathUnits="userSpaceOnUse"
       id="clipPath13">
      <path
         style="baseline-shift:baseline;display:none;overflow:visible;opacity:1;vector-effect:none;stroke-width:1;enable-background:accumulate;stop-color:#000000;stop-opacity:1"
         d="m 17.462891,10.054688 c -0.989983,-1e-6 -1.700799,0.533864 -2.414063,1.142578 -0.713264,0.608714 -1.411826,1.377951 -2.083984,2.177734 -1.344317,1.599567 -2.654536,3.39477 -3.1289064,3.869141 -0.4743701,0.474369 -2.2695741,1.784589 -3.8691406,3.128906 -0.7997836,0.672158 -1.5709736,1.37072 -2.1796875,2.083984 -0.6087142,0.713264 -1.1406251,1.42408 -1.1406251,2.414063 0,1.58015 1.0209361,2.948671 2.2109374,4.138671 1.1900014,1.190001 2.5585216,2.210938 4.138672,2.210938 0.9899827,0 1.6988452,-0.533863 2.4121092,-1.142579 0.713264,-0.608714 1.413779,-1.37795 2.085938,-2.177733 1.344316,-1.599567 2.654536,-3.394771 3.128906,-3.869141 0.47437,-0.47437 2.269573,-1.78459 3.86914,-3.128906 0.799784,-0.672158 1.569021,-1.372674 2.177735,-2.085938 0.608714,-0.713264 1.142578,-1.422126 1.142578,-2.412109 0,-1.580151 -1.020936,-2.94867 -2.210938,-4.138672 -1.190001,-1.190002 -2.558521,-2.210938 -4.138671,-2.210937 z m 0,2.115234 c 0.404225,0 1.680886,0.632058 2.640625,1.591797 0.959738,0.959738 1.591797,2.238354 1.591796,2.642578 0,0.0022 -0.160341,0.483153 -0.634765,1.039062 -0.474424,0.555909 -1.176997,1.203669 -1.931641,1.837891 -1.509288,1.268444 -3.153405,2.405359 -4.001953,3.253906 -0.848547,0.848547 -1.985462,2.494619 -3.253906,4.003906 -0.634222,0.754645 -1.281982,1.455264 -1.837891,1.929689 -0.555909,0.474424 -1.0368569,0.634764 -1.0390622,0.634764 -0.4042251,0 -1.6828397,-0.632058 -2.6425781,-1.591797 -0.9597385,-0.959736 -1.5917971,-2.236399 -1.5917971,-2.640624 0,-0.0022 0.1622949,-0.483154 0.636719,-1.039063 0.4744241,-0.555909 1.1750436,-1.203669 1.9296874,-1.83789 1.5092876,-1.268444 3.155359,-2.405359 4.003906,-3.253907 0.848548,-0.848547 1.985463,-2.494618 3.253907,-4.003906 0.634221,-0.754644 1.281981,-1.455263 1.83789,-1.929687 0.555909,-0.474424 1.036858,-0.636719 1.039063,-0.636719 z"
         id="path13" />
      <path
         id="lpe_path-effect13"
         style="baseline-shift:baseline;display:inline;overflow:visible;opacity:1;vector-effect:none;stroke-width:1;enable-background:accumulate;stop-color:#000000;stop-opacity:1"
         class="powerclip"
         d="M -2.8833334,11.404166 H 28.283332 V 36.75 H -2.8833334 Z M 17.462891,10.054688 c -0.989983,-1e-6 -1.700799,0.533864 -2.414063,1.142578 -0.713264,0.608714 -1.411826,1.377951 -2.083984,2.177734 -1.344317,1.599567 -2.654536,3.39477 -3.1289064,3.869141 -0.4743701,0.474369 -2.2695741,1.784589 -3.8691406,3.128906 -0.7997836,0.672158 -1.5709736,1.37072 -2.1796875,2.083984 -0.6087142,0.713264 -1.1406251,1.42408 -1.1406251,2.414063 0,1.58015 1.0209361,2.948671 2.2109374,4.138671 1.1900014,1.190001 2.5585216,2.210938 4.138672,2.210938 0.9899827,0 1.6988452,-0.533863 2.4121092,-1.142579 0.713264,-0.608714 1.413779,-1.37795 2.085938,-2.177733 1.344316,-1.599567 2.654536,-3.394771 3.128906,-3.869141 0.47437,-0.47437 2.269573,-1.78459 3.86914,-3.128906 0.799784,-0.672158 1.569021,-1.372674 2.177735,-2.085938 0.608714,-0.713264 1.142578,-1.422126 1.142578,-2.412109 0,-1.580151 -1.020936,-2.94867 -2.210938,-4.138672 -1.190001,-1.190002 -2.558521,-2.210938 -4.138671,-2.210937 z m 0,2.115234 c -0.0022,0 -0.483154,0.162295 -1.039063,0.636719 -0.555909,0.474424 -1.203669,1.175043 -1.83789,1.929687 -1.268444,1.509288 -2.405359,3.155359 -3.253907,4.003906 -0.848547,0.848548 -2.4946184,1.985463 -4.003906,3.253907 -0.7546438,0.634221 -1.4552633,1.281981 -1.9296874,1.83789 -0.4744241,0.555909 -0.636719,1.036863 -0.636719,1.039063 0,0.404225 0.6320586,1.680888 1.5917971,2.640624 0.9597384,0.959739 2.238353,1.591797 2.6425781,1.591797 0.00221,0 0.4831532,-0.16034 1.0390622,-0.634764 0.555909,-0.474425 1.203669,-1.175044 1.837891,-1.929689 1.268444,-1.509287 2.405359,-3.155359 3.253906,-4.003906 0.848548,-0.848547 2.492665,-1.985462 4.001953,-3.253906 0.754644,-0.634222 1.457217,-1.281982 1.931641,-1.837891 0.474424,-0.555909 0.634765,-1.036862 0.634765,-1.039062 10e-7,-0.404224 -0.632058,-1.68284 -1.591796,-2.642578 -0.959739,-0.959739 -2.2364,-1.591797 -2.640625,-1.591797 z" />
    </clipPath>
  </defs>
  <g
     inkscape:label="Layer 1"
     inkscape:groupmode="layer"
     id="layer1">
    <path
       style="fill:#ffffff;stroke-width:2.11667"
       d="m 0.52916666,24.870832 c 0,3.175 5.29166634,8.466666 8.46666624,8.466666 3.1750001,0 6.3499991,-6.349999 8.4666661,-8.466666 2.116667,-2.116667 8.466667,-5.291668 8.466667,-8.466667 0,-3.174999 -5.291667,-8.4666655 -8.466667,-8.4666655 -3.175,0 -6.349999,6.3499995 -8.4666662,8.4666665 -2.1166667,2.116667 -8.46666614,5.291666 -8.46666614,8.466666 z"
       id="path1"
       sodipodi:nodetypes="zzzzzzz"
       clip-path="url(#clipPath8)"
       inkscape:path-effect="#path-effect9"
       inkscape:original-d="m 0.52916666,24.870832 c 0,3.175 5.29166634,8.466666 8.46666624,8.466666 3.1750001,0 6.3499991,-6.349999 8.4666661,-8.466666 2.116667,-2.116667 8.466667,-5.291668 8.466667,-8.466667 0,-3.174999 -5.291667,-8.4666655 -8.466667,-8.4666655 -3.175,0 -6.349999,6.3499995 -8.4666662,8.4666665 -2.1166667,2.116667 -8.46666614,5.291666 -8.46666614,8.466666 z" />
    <path
       style="display:inline;fill:#ffffff;fill-opacity:1;stroke:none;stroke-width:2.11667;stroke-dasharray:none;stroke-opacity:1"
       d="m 23.283332,16.933333 c 0,0 -1.327831,-0.529167 -2.116666,-0.529167 -0.788836,0 -1.327832,0.529166 -2.116667,0.529166 -0.788835,0 -1.327832,-0.529166 -2.116667,-0.529166 -0.788835,0 -1.327831,0.529166 -2.116666,0.529166 -0.788835,0 -1.327832,-0.529166 -2.116667,-0.529166 -0.788835,0 -2.116666,0.529167 -2.116666,0.529167 L 2.1166666,23.283332 4.233333,29.633333 9.5249996,31.75 Z"
       id="path10"
       sodipodi:nodetypes="czzzzzccccc"
       clip-path="url(#clipPath13)"
       inkscape:path-effect="#path-effect13"
       inkscape:original-d="m 23.283332,16.933333 c 0,0 -1.327831,-0.529167 -2.116666,-0.529167 -0.788836,0 -1.327832,0.529166 -2.116667,0.529166 -0.788835,0 -1.327832,-0.529166 -2.116667,-0.529166 -0.788835,0 -1.327831,0.529166 -2.116666,0.529166 -0.788835,0 -1.327832,-0.529166 -2.116667,-0.529166 -0.788835,0 -2.116666,0.529167 -2.116666,0.529167 L 2.1166666,23.283332 4.233333,29.633333 9.5249996,31.75 Z" />
    <path
       style="fill:#ffffff;stroke-width:2.11667"
       d="M 19.579166,5.820833 28.045833,14.287499 30.1625,12.170832 21.695833,3.7041663 Z"
       id="path2" />
    <path
       style="fill:#ffffff;stroke-width:2.11667"
       d="m 23.812499,3.7041663 4.233333,1e-7 c 1.411111,-0.3527777 2.116667,-4.23333306 4.233333,-2.1166665 2.116666,2.1166666 -1.763889,2.822222 -2.116666,4.2333331 l 1e-6,4.233333 z"
       id="path3"
       sodipodi:nodetypes="czzzcc" />
  </g>
</svg>
