<?xml version="1.0" encoding="UTF-8" standalone="no"?>
<!-- Created with Inkscape (http://www.inkscape.org/) -->

<svg
   width="128"
   height="128"
   viewBox="0 0 33.866666 33.866666"
   version="1.1"
   id="svg1"
   inkscape:version="1.4.2 (ebf0e940d0, 2025-05-08)"
   sodipodi:docname="darkstudy.svg"
   inkscape:export-filename="darkstudy.png"
   inkscape:export-xdpi="96"
   inkscape:export-ydpi="96"
   xmlns:inkscape="http://www.inkscape.org/namespaces/inkscape"
   xmlns:sodipodi="http://sodipodi.sourceforge.net/DTD/sodipodi-0.dtd"
   xmlns="http://www.w3.org/2000/svg"
   xmlns:svg="http://www.w3.org/2000/svg">
  <sodipodi:namedview
     id="namedview1"
     pagecolor="#505050"
     bordercolor="#ffffff"
     borderopacity="1"
     inkscape:showpageshadow="0"
     inkscape:pageopacity="0"
     inkscape:pagecheckerboard="1"
     inkscape:deskcolor="#505050"
     inkscape:document-units="px"
     showgrid="true"
     inkscape:zoom="4.6624853"
     inkscape:cx="72.171809"
     inkscape:cy="85.898394"
     inkscape:window-width="2038"
     inkscape:window-height="1112"
     inkscape:window-x="0"
     inkscape:window-y="0"
     inkscape:window-maximized="1"
     inkscape:current-layer="layer1">
    <inkscape:grid
       id="grid1"
       units="px"
       originx="0"
       originy="0"
       spacingx="0.52916666"
       spacingy="0.52916666"
       empcolor="#0099e5"
       empopacity="0.30196078"
       color="#0099e5"
       opacity="0.14901961"
       empspacing="4"
       enabled="true"
       visible="true" />
  </sodipodi:namedview>
  <defs
     id="defs1">
    <inkscape:path-effect
       effect="powerclip"
       message=""
       id="path-effect25"
       is_visible="true"
       lpeversion="1"
       inverse="true"
       flatten="false"
       hide_clip="false" />
    <clipPath
       clipPathUnits="userSpaceOnUse"
       id="clipPath22">
      <g
         id="g25"
         style="display:none">
        <path
           id="path22"
           style="stroke-width:2.55612"
           d="m 15.874999,16.404165 a 3.7041662,2.6458333 0 0 1 -3.704166,2.645834 3.7041662,2.6458333 0 0 1 -3.7041665,-2.645834 3.7041662,2.6458333 0 0 1 3.7041665,-2.645833 3.7041662,2.6458333 0 0 1 3.704166,2.645833 z" />
        <path
           id="path23"
           style="stroke-width:2.55612"
           d="m 25.399999,16.404165 a 3.7041662,2.6458333 0 0 1 -3.704166,2.645834 3.7041662,2.6458333 0 0 1 -3.704166,-2.645834 3.7041662,2.6458333 0 0 1 3.704166,-2.645833 3.7041662,2.6458333 0 0 1 3.704166,2.645833 z" />
        <path
           id="path24"
           style="stroke-width:2.11667"
           d="m 10.53114,24.889953 c -0.02459,7.38e-4 -0.04934,0.0043 -0.0739,0.01085 l -0.312643,0.08372 c -0.1964878,0.05258 -0.3058129,0.277934 -0.2449461,0.505395 l 0.8743651,3.268535 c 0.06087,0.227462 0.268083,0.368323 0.464571,0.315743 l 0.313159,-0.08372 c 0.196483,-0.05258 0.305817,-0.277935 0.244947,-0.505396 L 11.53728,27.516666 h 0.633553 v 0.529167 c 0,0.293158 0.236009,0.529166 0.529167,0.529166 0.293159,0 0.529166,-0.236008 0.529166,-0.529166 V 27.516666 H 14.2875 v 0.529167 c 0,0.293158 0.236008,0.529166 0.529166,0.529166 0.293158,0 0.529167,-0.236008 0.529167,-0.529166 v -0.529167 h 1.058333 v 0.529167 c 0,0.293158 0.236009,0.529166 0.529167,0.529166 0.293158,0 0.529167,-0.236008 0.529167,-0.529166 v -0.529167 h 1.058333 v 0.529167 c 0,0.293158 0.236008,0.529166 0.529167,0.529166 0.293158,0 0.529166,-0.236008 0.529166,-0.529166 V 27.516666 H 20.6375 v 0.529167 c 0,0.293158 0.236008,0.529166 0.529166,0.529166 0.293159,0 0.529167,-0.236008 0.529167,-0.529166 v -0.529167 h 0.633553 l -0.258899,0.968416 c -0.06087,0.227461 0.04845,0.452818 0.244946,0.505396 l 0.312643,0.08372 c 0.196488,0.05258 0.403704,-0.08828 0.464571,-0.315743 l 0.874882,-3.268535 c 0.06087,-0.227461 -0.04846,-0.452817 -0.244946,-0.505395 l -0.31316,-0.08372 c -0.196487,-0.05258 -0.403705,0.08828 -0.464571,0.315743 l -0.332279,1.241785 h -0.91674 v -0.529167 c 0,-0.293158 -0.236008,-0.529167 -0.529167,-0.529167 -0.293158,0 -0.529166,0.236009 -0.529166,0.529167 v 0.529167 h -1.058334 v -0.529167 c 0,-0.293158 -0.236008,-0.529167 -0.529166,-0.529167 -0.293159,0 -0.529167,0.236009 -0.529167,0.529167 v 0.529167 H 17.4625 v -0.529167 c 0,-0.293158 -0.236009,-0.529167 -0.529167,-0.529167 -0.293158,0 -0.529167,0.236009 -0.529167,0.529167 v 0.529167 h -1.058333 v -0.529167 c 0,-0.293158 -0.236009,-0.529167 -0.529167,-0.529167 -0.293158,0 -0.529166,0.236009 -0.529166,0.529167 v 0.529167 h -1.058334 v -0.529167 c 0,-0.293158 -0.236007,-0.529167 -0.529166,-0.529167 -0.293158,0 -0.529167,0.236009 -0.529167,0.529167 v 0.529167 h -0.91674 l -0.332279,-1.241785 c -0.05326,-0.199029 -0.218555,-0.331761 -0.390674,-0.326595 z" />
        <path
           style="fill:#000000;stroke-width:2.11667"
           d="m 16.933333,19.049999 c -0.529166,0 -2.116667,3.704166 -1.5875,4.233333 0.529167,0.529167 1.058332,-0.411418 1.587499,-0.411418 0.529167,0 1.058333,0.940585 1.5875,0.411418 0.529167,-0.529167 -1.058333,-4.233333 -1.587499,-4.233333 z"
           id="path25"
           sodipodi:nodetypes="zzzzz" />
      </g>
      <path
         id="lpe_path-effect25"
         class="powerclip"
         d="M -0.76666737,-2.8833351 H 34.633332 V 36.750001 H -0.76666737 Z M 15.874999,16.404165 a 3.7041662,2.6458333 0 0 0 -3.704166,-2.645833 3.7041662,2.6458333 0 0 0 -3.7041665,2.645833 3.7041662,2.6458333 0 0 0 3.7041665,2.645834 3.7041662,2.6458333 0 0 0 3.704166,-2.645834 z m 9.525,0 a 3.7041662,2.6458333 0 0 0 -3.704166,-2.645833 3.7041662,2.6458333 0 0 0 -3.704166,2.645833 3.7041662,2.6458333 0 0 0 3.704166,2.645834 3.7041662,2.6458333 0 0 0 3.704166,-2.645834 z M 10.53114,24.889953 c -0.02459,7.38e-4 -0.04934,0.0043 -0.0739,0.01085 l -0.312643,0.08372 c -0.1964878,0.05258 -0.3058129,0.277934 -0.2449461,0.505395 l 0.8743651,3.268535 c 0.06087,0.227462 0.268083,0.368323 0.464571,0.315743 l 0.313159,-0.08372 c 0.196483,-0.05258 0.305817,-0.277935 0.244947,-0.505396 L 11.53728,27.516666 h 0.633553 v 0.529167 c 0,0.293158 0.236009,0.529166 0.529167,0.529166 0.293159,0 0.529166,-0.236008 0.529166,-0.529166 V 27.516666 H 14.2875 v 0.529167 c 0,0.293158 0.236008,0.529166 0.529166,0.529166 0.293158,0 0.529167,-0.236008 0.529167,-0.529166 v -0.529167 h 1.058333 v 0.529167 c 0,0.293158 0.236009,0.529166 0.529167,0.529166 0.293158,0 0.529167,-0.236008 0.529167,-0.529166 v -0.529167 h 1.058333 v 0.529167 c 0,0.293158 0.236008,0.529166 0.529167,0.529166 0.293158,0 0.529166,-0.236008 0.529166,-0.529166 V 27.516666 H 20.6375 v 0.529167 c 0,0.293158 0.236008,0.529166 0.529166,0.529166 0.293159,0 0.529167,-0.236008 0.529167,-0.529166 v -0.529167 h 0.633553 l -0.258899,0.968416 c -0.06087,0.227461 0.04845,0.452818 0.244946,0.505396 l 0.312643,0.08372 c 0.196488,0.05258 0.403704,-0.08828 0.464571,-0.315743 l 0.874882,-3.268535 c 0.06087,-0.227461 -0.04846,-0.452817 -0.244946,-0.505395 l -0.31316,-0.08372 c -0.196487,-0.05258 -0.403705,0.08828 -0.464571,0.315743 l -0.332279,1.241785 h -0.91674 v -0.529167 c 0,-0.293158 -0.236008,-0.529167 -0.529167,-0.529167 -0.293158,0 -0.529166,0.236009 -0.529166,0.529167 v 0.529167 h -1.058334 v -0.529167 c 0,-0.293158 -0.236008,-0.529167 -0.529166,-0.529167 -0.293159,0 -0.529167,0.236009 -0.529167,0.529167 v 0.529167 H 17.4625 v -0.529167 c 0,-0.293158 -0.236009,-0.529167 -0.529167,-0.529167 -0.293158,0 -0.529167,0.236009 -0.529167,0.529167 v 0.529167 h -1.058333 v -0.529167 c 0,-0.293158 -0.236009,-0.529167 -0.529167,-0.529167 -0.293158,0 -0.529166,0.236009 -0.529166,0.529167 v 0.529167 h -1.058334 v -0.529167 c 0,-0.293158 -0.236007,-0.529167 -0.529166,-0.529167 -0.293158,0 -0.529167,0.236009 -0.529167,0.529167 v 0.529167 h -0.91674 l -0.332279,-1.241785 c -0.05326,-0.199029 -0.218555,-0.331761 -0.390674,-0.326595 z m 6.402193,-5.839954 c -0.529166,0 -2.116667,3.704166 -1.5875,4.233333 0.529167,0.529167 1.058332,-0.411418 1.587499,-0.411418 0.529167,0 1.058333,0.940585 1.5875,0.411418 0.529167,-0.529167 -1.058333,-4.233333 -1.587499,-4.233333 z" />
    </clipPath>
  </defs>
  <g
     inkscape:label="Layer 1"
     inkscape:groupmode="layer"
     id="layer1">
    <g
       id="g8"
       clip-path="url(#clipPath22)"
       inkscape:path-effect="#path-effect25">
      <path
         style="fill:#ffffff;stroke-width:2.11667"
         id="path1"
         sodipodi:type="arc"
         sodipodi:cx="16.933332"
         sodipodi:cy="14.816665"
         sodipodi:rx="12.7"
         sodipodi:ry="12.7"
         d="m 29.633332,14.816665 a 12.7,12.7 0 0 1 -12.7,12.7 12.7,12.7 0 0 1 -12.6999994,-12.7 12.7,12.7 0 0 1 12.6999994,-12.7000001 12.7,12.7 0 0 1 12.7,12.7000001 z" />
      <path
         style="fill:#ffffff;stroke-width:2.11667"
         d="m 8.4666663,23.283334 2.1166667,8.466667 h 12.699999 l 2.116667,-8.466667 z"
         id="path2"
         sodipodi:nodetypes="ccccc"
         inkscape:original-d="m 8.4666663,23.283334 2.1166667,8.466667 h 12.699999 l 2.116667,-8.466667 z" />
    </g>
  </g>
</svg>
