<?xml version="1.0" encoding="UTF-8" standalone="no"?>
<!-- Created with Inkscape (http://www.inkscape.org/) -->

<svg
   width="128"
   height="128"
   viewBox="0 0 33.866666 33.866666"
   version="1.1"
   id="svg1"
   inkscape:version="1.4.2 (ebf0e940d0, 2025-05-08)"
   sodipodi:docname="cleaning.svg"
   inkscape:export-filename="cleaning.png"
   inkscape:export-xdpi="96"
   inkscape:export-ydpi="96"
   xmlns:inkscape="http://www.inkscape.org/namespaces/inkscape"
   xmlns:sodipodi="http://sodipodi.sourceforge.net/DTD/sodipodi-0.dtd"
   xmlns="http://www.w3.org/2000/svg"
   xmlns:svg="http://www.w3.org/2000/svg">
  <sodipodi:namedview
     id="namedview1"
     pagecolor="#505050"
     bordercolor="#ffffff"
     borderopacity="1"
     inkscape:showpageshadow="0"
     inkscape:pageopacity="0"
     inkscape:pagecheckerboard="1"
     inkscape:deskcolor="#505050"
     inkscape:document-units="px"
     showgrid="true"
     inkscape:zoom="2.3312427"
     inkscape:cx="53.190516"
     inkscape:cy="45.68379"
     inkscape:window-width="1068"
     inkscape:window-height="1112"
     inkscape:window-x="0"
     inkscape:window-y="0"
     inkscape:window-maximized="1"
     inkscape:current-layer="layer1">
    <inkscape:grid
       id="grid1"
       units="px"
       originx="0"
       originy="0"
       spacingx="0.52916666"
       spacingy="0.52916666"
       empcolor="#0099e5"
       empopacity="0.30196078"
       color="#0099e5"
       opacity="0.14901961"
       empspacing="4"
       enabled="true"
       visible="true" />
  </sodipodi:namedview>
  <defs
     id="defs1" />
  <g
     inkscape:label="Layer 1"
     inkscape:groupmode="layer"
     id="layer1">
    <g
       id="g1"
       transform="rotate(-135,16.714144,17.4625)">
      <path
         id="rect1"
         style="fill:#ffffff;stroke-width:1.83309"
         d="m 16.933334,0 c 2.350815,0 3.174999,0.82973329 3.174999,3.1749998 V 21.166665 h -6.35 V 3.1749998 C 13.758333,0.82973329 14.582519,0 16.933334,0 Z"
         sodipodi:nodetypes="zsccsz" />
      <path
         style="fill:#ffffff;stroke-width:2.11667"
         d="m 16.933332,23.283332 c -4.233333,0 -4.762499,8.995835 -4.762499,10.054168 0,1.058333 1.587499,-1.058333 2.116666,-0.529167 0.529166,0.529167 0.529167,3.175 1.058334,3.175 0.529167,0 0.529166,-2.116667 1.587499,-2.116667 1.058334,0 1.058333,2.116667 1.5875,2.116667 0.529167,0 0.529168,-2.645833 1.058334,-3.175 0.529167,-0.529166 2.116666,1.5875 2.116666,0.529167 0,-1.058333 -0.529166,-10.054168 -4.7625,-10.054168 z"
         id="path1"
         sodipodi:nodetypes="zzzzzzzsz" />
    </g>
  </g>
</svg>
