<?xml version="1.0" encoding="UTF-8" standalone="no"?>
<!-- Created with Inkscape (http://www.inkscape.org/) -->

<svg
   width="128"
   height="128"
   viewBox="0 0 33.866666 33.866666"
   version="1.1"
   id="svg1"
   inkscape:version="1.4.2 (ebf0e940d0, 2025-05-08)"
   sodipodi:docname="cooking.svg"
   inkscape:export-filename="cooking.png"
   inkscape:export-xdpi="96"
   inkscape:export-ydpi="96"
   xmlns:inkscape="http://www.inkscape.org/namespaces/inkscape"
   xmlns:sodipodi="http://sodipodi.sourceforge.net/DTD/sodipodi-0.dtd"
   xmlns="http://www.w3.org/2000/svg"
   xmlns:svg="http://www.w3.org/2000/svg">
  <sodipodi:namedview
     id="namedview1"
     pagecolor="#505050"
     bordercolor="#ffffff"
     borderopacity="1"
     inkscape:showpageshadow="0"
     inkscape:pageopacity="0"
     inkscape:pagecheckerboard="1"
     inkscape:deskcolor="#505050"
     inkscape:document-units="px"
     showgrid="true"
     inkscape:zoom="2.8284272"
     inkscape:cx="82.024386"
     inkscape:cy="99.171725"
     inkscape:window-width="1068"
     inkscape:window-height="1112"
     inkscape:window-x="0"
     inkscape:window-y="0"
     inkscape:window-maximized="1"
     inkscape:current-layer="layer1">
    <inkscape:grid
       id="grid1"
       units="px"
       originx="0"
       originy="0"
       spacingx="1.0583333"
       spacingy="1.0583333"
       empcolor="#0099e5"
       empopacity="0.30196078"
       color="#0099e5"
       opacity="0.14901961"
       empspacing="4"
       enabled="true"
       visible="true" />
  </sodipodi:namedview>
  <defs
     id="defs1">
    <inkscape:path-effect
       effect="powerclip"
       message=""
       id="path-effect22"
       is_visible="true"
       lpeversion="1"
       inverse="true"
       flatten="false"
       hide_clip="false" />
    <clipPath
       clipPathUnits="userSpaceOnUse"
       id="clipPath19">
      <g
         id="g22"
         style="display:none">
        <path
           style="baseline-shift:baseline;display:inline;overflow:visible;opacity:1;vector-effect:none;stroke-linecap:round;enable-background:accumulate;stop-color:#000000;stop-opacity:1"
           d="m 12.699219,14.285156 a 0.53100002,0.53100002 0 0 0 -0.529297,0.53125 v 10.583985 a 0.53100002,0.53100002 0 0 0 0.529297,0.53125 0.53100002,0.53100002 0 0 0 0.53125,-0.53125 V 14.816406 a 0.53100002,0.53100002 0 0 0 -0.53125,-0.53125 z"
           id="path20" />
        <path
           style="baseline-shift:baseline;display:inline;overflow:visible;opacity:1;vector-effect:none;stroke-linecap:round;enable-background:accumulate;stop-color:#000000;stop-opacity:1"
           d="m 21.166016,14.285156 a 0.53100002,0.53100002 0 0 0 -0.53125,0.53125 v 10.583985 a 0.53100002,0.53100002 0 0 0 0.53125,0.53125 0.53100002,0.53100002 0 0 0 0.53125,-0.53125 V 14.816406 a 0.53100002,0.53100002 0 0 0 -0.53125,-0.53125 z"
           id="path21" />
        <path
           style="baseline-shift:baseline;display:inline;overflow:visible;opacity:1;vector-effect:none;stroke-linecap:round;enable-background:accumulate;stop-color:#000000;stop-opacity:1"
           d="m 16.933594,14.285156 a 0.53100002,0.53100002 0 0 0 -0.53125,0.53125 v 10.583985 a 0.53100002,0.53100002 0 0 0 0.53125,0.53125 0.53100002,0.53100002 0 0 0 0.53125,-0.53125 V 14.816406 a 0.53100002,0.53100002 0 0 0 -0.53125,-0.53125 z"
           id="path22" />
      </g>
      <path
         id="lpe_path-effect22"
         class="powerclip"
         d="M -0.09477481,-3.1479169 H 33.96144 V 30.399999 H -0.09477481 Z M 12.699219,14.285156 a 0.53100002,0.53100002 0 0 0 -0.529297,0.53125 v 10.583985 a 0.53100002,0.53100002 0 0 0 0.529297,0.53125 0.53100002,0.53100002 0 0 0 0.53125,-0.53125 V 14.816406 a 0.53100002,0.53100002 0 0 0 -0.53125,-0.53125 z m 8.466797,0 a 0.53100002,0.53100002 0 0 0 -0.53125,0.53125 v 10.583985 a 0.53100002,0.53100002 0 0 0 0.53125,0.53125 0.53100002,0.53100002 0 0 0 0.53125,-0.53125 V 14.816406 a 0.53100002,0.53100002 0 0 0 -0.53125,-0.53125 z m -4.232422,0 a 0.53100002,0.53100002 0 0 0 -0.53125,0.53125 v 10.583985 a 0.53100002,0.53100002 0 0 0 0.53125,0.53125 0.53100002,0.53100002 0 0 0 0.53125,-0.53125 V 14.816406 a 0.53100002,0.53100002 0 0 0 -0.53125,-0.53125 z" />
    </clipPath>
  </defs>
  <g
     inkscape:label="Layer 1"
     inkscape:groupmode="layer"
     id="layer1">
    <rect
       style="fill:#ffffff;stroke-width:1.18324;stroke-linecap:round"
       id="rect1"
       width="16.933332"
       height="5.2916632"
       x="8.4666662"
       y="26.458332" />
    <path
       style="fill:#ffffff;stroke-width:1.05833;stroke-linecap:round"
       d="M 8.4666663,25.399999 H 25.399999 V 11.641665 c 4.233333,0 3.779909,-5.14018 3.174999,-6.3499987 -1.058335,-2.1166666 -4.233333,-3.1749999 -7.408332,-1.0583333 -2.116667,-3.1749998 -6.35,-3.1749998 -8.466667,0 C 9.5249995,2.1166664 6.3499998,3.1749997 5.2916664,5.2916663 4.686757,6.501485 4.2333331,11.641665 8.4666662,11.641665 Z"
       id="path1"
       sodipodi:nodetypes="cccsccscc"
       clip-path="url(#clipPath19)"
       inkscape:path-effect="#path-effect22"
       inkscape:original-d="M 8.4666663,25.399999 H 25.399999 V 11.641665 c 4.233333,0 3.779909,-5.14018 3.174999,-6.3499987 -1.058335,-2.1166666 -4.233333,-3.1749999 -7.408332,-1.0583333 -2.116667,-3.1749998 -6.35,-3.1749998 -8.466667,0 C 9.5249995,2.1166664 6.3499998,3.1749997 5.2916664,5.2916663 4.686757,6.501485 4.2333331,11.641665 8.4666662,11.641665 Z" />
  </g>
</svg>
